<svg width="14" height="18" viewBox="0 0 14 18" fill="none" xmlns="http://www.w3.org/2000/svg">
<path d="M1.27466 1.50643C1.5714 0.98714 2.12364 0.666664 2.72173 0.666664H11.2783C11.8764 0.666664 12.4287 0.987141 12.7254 1.50643L13.6778 3.1731C14.2177 4.11802 13.7182 5.25922 12.7696 5.57943C12.7731 5.64718 12.7724 5.71592 12.7675 5.78541L12.0532 15.7854C11.9909 16.6576 11.2652 17.3333 10.3908 17.3333H3.60929C2.73489 17.3333 2.00916 16.6576 1.94686 15.7854L1.23257 5.78541C1.22761 5.71592 1.22697 5.64717 1.23041 5.57942C0.281812 5.2592 -0.217675 4.11802 0.322277 3.1731L1.27466 1.50643ZM2.895 5.66666L3.07358 8.16666H10.9265L11.105 5.66666H2.895ZM3.43072 13.1667L3.60929 15.6667H10.3908L10.5693 13.1667H3.43072ZM12.2307 4L11.2783 2.33333L2.72173 2.33333L1.76935 4H12.2307Z" fill="white"/>
</svg>
