<svg width="15" height="15" viewBox="0 0 15 15" fill="none" xmlns="http://www.w3.org/2000/svg">
<path d="M7.67273 14.476C7.27469 14.4772 6.89276 14.3189 6.61223 14.0365L0.734479 8.16024C0.424333 7.85112 0.265333 7.42155 0.299479 6.985L0.674479 2.0605C0.728043 1.31926 1.31904 0.730496 2.06048 0.679746L6.98498 0.304746C7.02398 0.296495 7.06223 0.296495 7.10123 0.296495C7.49847 0.296019 7.87945 0.454241 8.15948 0.735996L14.0372 6.6115C14.3187 6.89282 14.4768 7.27444 14.4768 7.67237C14.4768 8.0703 14.3187 8.45192 14.0372 8.73324L8.73323 14.0365C8.4526 14.3187 8.07074 14.477 7.67273 14.476ZM4.49048 2.9905C3.81159 2.99069 3.21748 3.44682 3.04193 4.10262C2.86638 4.75841 3.15317 5.45035 3.74116 5.78968C4.32916 6.12901 5.07176 6.03111 5.55173 5.551L5.55698 5.5465L5.56223 5.54125L5.55623 5.5465C5.98256 5.11641 6.10845 4.47216 5.8754 3.91323C5.64235 3.35429 5.09606 2.99031 4.49048 2.9905Z" fill="white"/>
</svg>
